<svg id="Layer_2" data-name="Layer 2" xmlns="http://www.w3.org/2000/svg" viewBox="0 0 1920 1080"><defs><style>.cls-1{fill:#8c5f3d;}.cls-2{fill:#e6b175;}.cls-3{fill:#fff;}.cls-4{fill:none;stroke:#000;stroke-miterlimit:10;}</style></defs><path class="cls-1" d="M264.38,389.9c-289.44-360,239.74-499.18,239.74-210.31"/><path class="cls-2" d="M296,341.4c-160-172.25,74-335.68,154.9-134.32"/><path class="cls-1" d="M1727.59,389.9c289.45-360-239.73-499.18-239.73-210.31"/><path class="cls-2" d="M1696,341.4c160-172.25-74-335.68-154.91-134.32"/><path class="cls-2" d="M994.67,239.64C633.54,248.34,564,565.92,564,565.92c-395.9,182.73-113.12,422-113.12,422,60.23,24.32,451.46,67.83,543.82,67.83"/><path class="cls-2" d="M994.67,239.64c361.13,8.7,430.7,326.28,430.7,326.28,395.9,182.73,113.11,422,113.11,422-60.23,24.32-451.45,67.83-543.81,67.83"/><path class="cls-1" d="M997.31,243.11c-361.14,8.7-430.7,326.29-430.7,326.29-395.9,182.72-113.12,422-113.12,422C218.6,1061-143.37,90.84,997.31,90.84"/><path class="cls-1" d="M994.67,243.11c361.13,8.7,430.7,326.29,430.7,326.29,395.9,182.72,113.11,422,113.11,422C1773.37,1061,2135.35,90.84,994.67,90.84"/><ellipse cx="758.46" cy="647.69" rx="47.64" ry="89.38"/><ellipse cx="1241.61" cy="647.69" rx="47.64" ry="89.38"/><ellipse class="cls-3" cx="769.89" cy="701.29" rx="5.7" ry="11.97"/><ellipse class="cls-3" cx="1247.31" cy="701.29" rx="5.7" ry="11.97"/><path class="cls-4" d="M832.17,891.21c-.11,46.47,270.77,51.66,270.77,0"/></svg>