<svg id="Layer_2" data-name="Layer 2" xmlns="http://www.w3.org/2000/svg" viewBox="0 0 1920 1080"><defs><style>.cls-1{fill:#8c5f3d;}.cls-2{fill:#e6b175;}.cls-3{fill:#fff;}.cls-4{fill:none;stroke:#000;stroke-miterlimit:10;}</style></defs><path class="cls-1" d="M1228.69,794.52c44.78-4.15,64.71,74.73,113.7,73.9s70.57-46,72.23-74-14.12-68.76-55.63-68.76-44.83,54.81-43.17,71.41,5,41.51,28.23,42.34,36.53-15.77,35.7-42.34-15-26.21-24.08-26.39-15,13.94-13.28,26.39.83,16.6,12.45,16.6,4.15,18.12-13.29,8.64-12.45-34.84-2.49-51.63,51.48-15.93,52.31,19.76-16.25,67.91-47.32,68.06-44.84-27.39-44-73.06,31.55-71.4,63.1-75.55,66.42,36.53,65.59,86.35S1398,888.34,1344.88,890s-83.75-75.55-116.19-75.55"/><path class="cls-1" d="M1147.76,972.17c17.75,21.58,7.3,93.72-41.13,26"/><path class="cls-1" d="M974.86,972.17c-17.75,21.58-7.3,93.72,41.13,26"/><path class="cls-1" d="M1228.69,569.37c38.22,1,40.7,25.74,40.7,35.64s-30.18,7.68-30.18,7.68"/><path class="cls-1" d="M894.84,569c-38.22,1-40.69,25.74-40.69,35.64s30.18,7.68,30.18,7.68"/><ellipse class="cls-1" cx="1061.67" cy="703.03" rx="185.46" ry="304.49"/><path class="cls-1" d="M749.69,204.15c-123.21-153.22,102-212.48,102-89.52"/><path class="cls-2" d="M763.13,183.5C695,110.19,794.61,40.62,829.06,126.33"/><path class="cls-1" d="M1372.52,204.15c123.21-153.22-102-212.48-102-89.52"/><path class="cls-2" d="M1359.08,183.5c68.13-73.31-31.48-142.88-65.93-57.17"/><path class="cls-2" d="M1292,458.71c-25.64,10.35-192.17,28.87-231.49,28.87S854.7,469.06,829.06,458.71c0,0-120.37-101.85,48.15-179.63,0,0,29.61-135.19,183.33-138.89,153.72,3.7,183.34,138.89,183.34,138.89C1412.4,356.86,1292,458.71,1292,458.71Z"/><path class="cls-1" d="M1061.67,141.67C908,145.37,878.33,280.56,878.33,280.56c-168.52,77.77-48.14,179.63-48.14,179.63-100,29.62-254.07-383.34,231.48-383.34"/><path class="cls-1" d="M1060.54,141.67c153.72,3.7,183.34,138.89,183.34,138.89C1412.4,358.33,1292,460.19,1292,460.19c100,29.62,254.06-383.34-231.49-383.34"/><ellipse cx="960" cy="313.88" rx="20.28" ry="38.05"/><ellipse cx="1165.66" cy="313.88" rx="20.28" ry="38.05"/><ellipse class="cls-3" cx="964.86" cy="336.7" rx="2.43" ry="5.09"/><ellipse class="cls-3" cx="1168.08" cy="336.7" rx="2.43" ry="5.09"/><ellipse class="cls-2" cx="1061.67" cy="730.42" rx="104.6" ry="230.18"/><path class="cls-4" d="M991.38,417.54c0,19.78,115.25,22,115.25,0"/><path id="path26" d="M1072.37,604.43c-11-.28-23.91,26-23.48,49.51.1,7.15,2.35,21.65,5.64,39.86-20.76,21.49-44.87,43.54-44.87,72.48-.33,26.52,15.88,60.31,54.33,60a63.35,63.35,0,0,0,15.93-2c3.52,19.28,5.86,34.49,5.84,41.52.13,27.7-36.27,30.44-38,14.52a13.94,13.94,0,1,0-.51-27.87,14.42,14.42,0,0,0-10.85,4.9l-.19.18a11.71,11.71,0,0,0-1.58,2.24c-1.63,2.74-2.68,6.68-2.73,12.3,0,23.2,58.64,38.13,58.64-7.61.09-6.16-2.55-21.77-6.41-41.46,41.85-15.13,31.34-77.26-7.17-77.55a36.62,36.62,0,0,0-8.63,1.08c-2.19-10.56-4.31-20.8-6.16-30.21,14.62-14.37,27.39-33,27.1-67.22C1089.3,624.45,1081.1,604.72,1072.37,604.43Zm2.6,23.8c5-.48,9,4.15,9,14.35.41,17.5-11.86,32.79-26.46,48.17a164.22,164.22,0,0,1-2.42-19.29C1055.46,644.11,1066.66,629,1075,628.23ZM1059.3,719c1.78,9.17,3.7,18.83,5.64,28.56-25.48,9.07-37.71,44.59-1.58,60.49-22-18.75-11.19-40.95,4.69-44.81,4,19.93,7.9,39.61,11,56.61a46.42,46.42,0,0,1-15.11,2.41c-14.58,0-43.73-9.28-43.73-44.43C1020.26,748.4,1040.67,736.43,1059.3,719Zm12.37,43.6c.64,0,1.33,0,2,0,26.53,0,36.54,42.14,9.52,55.6C1079.8,801.3,1075.72,781.93,1071.67,762.6Z"/></svg>