<svg id="Layer_2" data-name="Layer 2" xmlns="http://www.w3.org/2000/svg" viewBox="0 0 1717.88 1082.9"><defs><style>.cls-1,.cls-5{fill:none;}.cls-2{fill:#8c5f3d;}.cls-3{fill:#e6b175;}.cls-4{fill:#fff;}.cls-5{stroke:#000;stroke-miterlimit:10;}</style></defs><path class="cls-1" d="M961.38,69.9" transform="translate(-101.06)"/><path class="cls-1" d="M1532.3,1015.34" transform="translate(-101.06)"/><path class="cls-1" d="M961.38,69.9" transform="translate(-101.06)"/><path class="cls-2" d="M191.94,383.86C-111.93,6,443.62-140.19,443.62,163.08" transform="translate(-101.06)"/><path class="cls-3" d="M225.08,333c-168-180.83,77.64-352.41,162.62-141" transform="translate(-101.06)"/><path class="cls-1" d="M958.62,69.9" transform="translate(-101.06)"/><path class="cls-1" d="M387.7,1015.34" transform="translate(-101.06)"/><path class="cls-1" d="M958.62,69.9" transform="translate(-101.06)"/><path class="cls-2" d="M1728.06,383.86c303.87-377.9-251.68-524-251.68-220.78" transform="translate(-101.06)"/><path class="cls-3" d="M1694.92,333c168-180.83-77.64-352.41-162.62-141" transform="translate(-101.06)"/><path class="cls-2" d="M951.3,71.78" transform="translate(-101.06)"/><path class="cls-3" d="M1529.54,1011.7c-63.24,25.52-474,71.2-570.93,71.2s-507.68-45.68-570.91-71.2c0,0-296.88-251.2,118.75-443,0,0,73-333.43,452.16-342.55,379.12,9.12,452.18,342.55,452.18,342.55C1826.41,760.5,1529.54,1011.7,1529.54,1011.7Z" transform="translate(-101.06)"/><path class="cls-2" d="M961.38,229.76c-379.12,9.13-452.16,342.55-452.16,342.55-415.62,191.82-118.75,443-118.75,443C143.88,1088.41-236.14,69.9,961.38,69.9" transform="translate(-101.06)"/><path class="cls-2" d="M958.62,229.76c379.12,9.13,452.16,342.55,452.16,342.55,415.62,191.82,118.75,443,118.75,443C1776.12,1088.41,2156.14,69.9,958.62,69.9" transform="translate(-101.06)"/><ellipse cx="609.58" cy="654.5" rx="50.01" ry="93.83"/><ellipse cx="1116.8" cy="654.5" rx="50.01" ry="93.83"/><ellipse class="cls-4" cx="621.57" cy="710.77" rx="5.98" ry="12.56"/><ellipse class="cls-4" cx="1122.78" cy="710.77" rx="5.98" ry="12.56"/><path class="cls-5" d="M788,910.16c-.12,48.78,284.26,54.23,284.26,0" transform="translate(-101.06)"/><path d="M1336.88,972.17" transform="translate(-101.06)"/><path d="M1305.33,871.74" transform="translate(-101.06)"/></svg>